# xmcd
#
# Track frame offsets: 
#        150
#        17734
#        37697
#        53755
#        68478
#        79906
#        96607
#        114088
#        125418
#        144419
#        161826
#        179295
#        198545
#        213602
#        227306
#        242659
#        265950
#        279617
#        293890
#        306748
#        329896
#
# Disc length: 4598 seconds
#
# Revision: 2
# Processed by: cddbd v1.5.2PL0 Copyright (c) Steve Scherf et al.
# Submitted via: ExactAudioCopy v0.99pb4
#
DISCID=3a11f415
DTITLE=Ono Lisa - Ono Lisa best 1989-1996
DYEAR=2008
DGENRE=Latin
TTITLE0=Catupiry
TTITLE1=Litoral De Sol
TTITLE2=O Samba
TTITLE3=Clea
TTITLE4=O Corso
TTITLE5=Orixã
TTITLE6=O Guarda-Chuva Azul
TTITLE7=Taiyo No Kodomotachi
TTITLE8=Menina Flor
TTITLE9=Pela Luz Dos Olhos Teus
TTITLE10=Samba De Enredo
TTITLE11=Um Abraco No João
TTITLE12=Meu Carnaval
TTITLE13=Estrada Branca
TTITLE14=Brincadeira De Rada
TTITLE15=Samba De Esperança
TTITLE16=Minha Saudade
TTITLE17=Sambou Sambou
TTITLE18=Baiãozinho
TTITLE19=Garota De Ipanema
TTITLE20=Desafinoado
EXTD=YEAR: 2008
EXTT0=
EXTT1=
EXTT2=
EXTT3=
EXTT4=
EXTT5=
EXTT6=
EXTT7=
EXTT8=
EXTT9=
EXTT10=
EXTT11=
EXTT12=
EXTT13=
EXTT14=
EXTT15=
EXTT16=
EXTT17=
EXTT18=
EXTT19=
EXTT20=
PLAYORDER=
